<?xml version="1.0" standalone="no"?><!DOCTYPE svg PUBLIC "-//W3C//DTD SVG 1.1//EN" "http://www.w3.org/Graphics/SVG/1.1/DTD/svg11.dtd"><svg t="1668061242430" class="icon" viewBox="0 0 1024 1024" version="1.1" xmlns="http://www.w3.org/2000/svg" p-id="13441" xmlns:xlink="http://www.w3.org/1999/xlink" width="200" height="200"><path d="M945.066667 669.866667c-21.333333-83.2-66.133333-151.466667-128-194.133334 32-40.533333 46.933333-91.733333 40.533333-142.933333C853.333333 245.333333 789.333333 170.666667 701.866667 153.6c-29.866667-4.266667-59.733333-2.133333-87.466667 8.533333l-12.8 6.4c-42.666667-44.8-102.4-72.533333-170.666667-74.666666C300.8 98.133333 194.133333 209.066667 198.4 341.333333c0 61.866667 23.466667 121.6 64 166.4-87.466667 53.333333-151.466667 142.933333-181.333333 251.733334-10.666667 42.666667-2.133333 87.466667 23.466666 121.6 23.466667 29.866667 55.466667 46.933333 89.6 46.933333h484.266667c34.133333 0 68.266667-17.066667 89.6-46.933333 17.066667-21.333333 25.6-46.933333 27.733333-72.533334H853.333333c27.733333 0 55.466667-12.8 72.533334-36.266666 21.333333-27.733333 29.866667-66.133333 19.2-102.4z m-245.333334 160c-4.266667 6.4-12.8 12.8-21.333333 12.8H192c-10.666667 0-17.066667-6.4-21.333333-12.8-10.666667-12.8-12.8-32-8.533334-49.066667 29.866667-108.8 100.266667-192 192-224 14.933333-6.4 25.6-19.2 27.733334-36.266667 2.133333-17.066667-6.4-32-21.333334-40.533333-49.066667-29.866667-78.933333-83.2-78.933333-140.8-2.133333-85.333333 66.133333-157.866667 151.466667-160 85.333333 2.133333 155.733333 72.533333 153.6 160 0 57.6-29.866667 110.933333-78.933334 140.8-14.933333 8.533333-21.333333 23.466667-21.333333 40.533333 2.133333 17.066667 12.8 29.866667 27.733333 36.266667 91.733333 32 162.133333 117.333333 192 224 6.4 19.2 4.266667 36.266667-6.4 49.066667z m157.866667-108.8c-2.133333 2.133333-4.266667 4.266667-6.4 4.266666h-72.533333c-32-93.866667-93.866667-170.666667-170.666667-217.6 40.533333-44.8 64-104.533333 64-166.4 0-36.266667-6.4-70.4-19.2-100.266666 12.8-4.266667 25.6-4.266667 36.266667-2.133334 49.066667 10.666667 83.2 51.2 85.333333 102.4 4.266667 42.666667-14.933333 85.333333-53.333333 108.8-12.8 8.533333-21.333333 23.466667-19.2 40.533334 2.133333 14.933333 12.8 29.866667 27.733333 36.266666 61.866667 23.466667 113.066667 85.333333 132.266667 164.266667 4.266667 12.8 0 23.466667-4.266667 29.866667z" p-id="13442"></path></svg>