<?xml version="1.0" standalone="no"?><!DOCTYPE svg PUBLIC "-//W3C//DTD SVG 1.1//EN" "http://www.w3.org/Graphics/SVG/1.1/DTD/svg11.dtd"><svg t="1668056284954" class="icon" viewBox="0 0 1024 1024" version="1.1" xmlns="http://www.w3.org/2000/svg" p-id="13295" xmlns:xlink="http://www.w3.org/1999/xlink" width="200" height="200"><path d="M623.2 502.2c42.4-33.2 67.5-83.9 67.5-139.3 0-98-79.7-177.7-177.7-177.7-98 0-177.7 79.7-177.7 177.7 0 55.4 25.1 106.1 67.5 139.3C302.4 545.6 235 645.8 235 757.2c0 9.9 0.6 20.2 1.9 31.5 1 8.8 8.5 15.5 17.4 15.5h517.4c8.9 0 16.4-6.7 17.4-15.5 1.3-11.2 1.9-21.5 1.9-31.5 0-111.4-67.4-211.6-167.8-255z m132.5 267.1H270.3c-0.2-4.2-0.4-8.1-0.4-12.1 0-108.3 72.9-204.5 177.3-233.7 7-2 12-8 12.7-15.2 0.7-7.2-3.2-14.1-9.7-17.3-49.3-24.2-80-73.3-80-128 0-78.7 64-142.7 142.7-142.7 78.7 0 142.7 64 142.7 142.7 0 54.7-30.6 103.8-80 128-6.5 3.2-10.4 10.1-9.7 17.3 0.7 7.2 5.7 13.3 12.7 15.2C683.1 552.7 756 648.9 756 757.2c0 3.9-0.1 7.9-0.3 12.1zM800.2 499.6c30.9-26.5 49-65.2 49-107.3 0-78.3-63.7-142-142-142-9.7 0-17.5 7.8-17.5 17.5s7.8 17.5 17.5 17.5c59 0 107 48 107 107 0 41.1-23 77.8-60 96-6.5 3.2-10.4 10.1-9.7 17.3 0.7 7.2 5.7 13.3 12.7 15.2 79.5 22.3 134.9 95.4 134.9 177.9 0 1.8 0 3.6-0.1 5.5h-55.5c-9.7 0-17.5 7.8-17.5 17.5s7.8 17.5 17.5 17.5h71.7c8.9 0 16.4-6.7 17.4-15.5 1-9 1.5-17.2 1.5-25 0.1-86-50.6-163.5-126.9-199.1zM189.4 704.2h-55.5c-0.1-1.9-0.1-3.7-0.1-5.5 0-82.5 55.5-155.6 134.9-177.9 7-2 12-8 12.7-15.2 0.7-7.2-3.2-14.1-9.7-17.3-37-18.2-60-55-60-96 0-59 48-107 107-107 9.7 0 17.5-7.8 17.5-17.5s-7.8-17.5-17.5-17.5c-78.3 0-142 63.7-142 142 0 42.1 18.2 80.8 49 107.3-76.2 35.7-127 113.1-127 199.2 0 7.8 0.5 16 1.5 25 1 8.8 8.5 15.5 17.4 15.5h71.7c9.7 0 17.5-7.8 17.5-17.5 0.1-9.7-7.7-17.6-17.4-17.6z" fill="#3E3A39" p-id="13296"></path></svg>